<?xml version="1.0" standalone="no"?>
<!DOCTYPE svg PUBLIC "-//W3C//DTD SVG 20010904//EN"
 "http://www.w3.org/TR/2001/REC-SVG-20010904/DTD/svg10.dtd">
<svg version="1.0" xmlns="http://www.w3.org/2000/svg"
 width="203.000000pt" height="203.000000pt" viewBox="0 0 203.000000 203.000000"
 preserveAspectRatio="xMidYMid meet">
<metadata>
Created by potrace 1.11, written by Peter Selinger 2001-2013
</metadata>
<g transform="translate(0.000000,203.000000) scale(0.100000,-0.100000)"
fill="#000000" stroke="none">
<path d="M100 1010 l0 -1000 925 0 925 0 0 1000 0 1000 -925 0 -925 0 0 -1000z
m1821 958 c1 -7 2 -444 3 -970 1 -949 1 -957 -19 -960 -17 -3 -1687 -2 -1752
1 l-23 1 0 970 0 970 895 0 c709 0 895 -3 896 -12z"/>
<path d="M204 1896 c-2 -6 -3 -130 -2 -276 l3 -265 33 -3 32 -3 0 139 0 138
53 3 c118 5 181 95 138 198 -22 53 -67 74 -167 77 -56 2 -87 -1 -90 -8z"/>
<path d="M760 1900 c-6 -4 -10 -20 -8 -36 l3 -29 83 -1 c92 -1 108 -9 118 -61
9 -47 -22 -73 -86 -73 l-50 0 0 -41 c0 -31 17 -75 68 -175 65 -131 68 -134
100 -134 17 0 32 5 32 10 0 6 -29 68 -65 139 l-64 129 34 6 c42 8 92 63 101
112 9 49 -24 117 -67 140 -34 17 -178 27 -199 14z"/>
<path d="M1104 1899 c-4 -7 -6 -294 -4 -507 0 -43 0 -43 33 -40 l32 3 0 274 0
275 -28 1 c-15 1 -30 -2 -33 -6z"/>
<path d="M1340 1899 c-38 -8 -99 -67 -101 -96 0 -10 -2 -27 -4 -37 -6 -34 31
-90 101 -151 94 -83 104 -95 104 -125 0 -46 -31 -64 -118 -66 -42 -1 -81 -3
-85 -3 -5 -1 -7 -16 -5 -33 l3 -33 82 -1 c122 -3 178 34 190 123 7 57 -13 89
-110 175 -86 74 -102 102 -87 144 12 29 40 37 128 36 l72 0 0 37 0 36 -68 1
c-37 0 -83 -3 -102 -7z"/>
<path d="M546 1818 c2 -71 5 -79 99 -266 53 -106 103 -196 110 -198 7 -3 25
-4 40 -2 26 3 26 3 -107 270 -73 147 -136 268 -139 268 -3 0 -4 -33 -3 -72z"/>
<path d="M310 1280 c-44 -12 -71 -34 -91 -72 -16 -32 -19 -59 -19 -186 0 -82
3 -164 6 -181 9 -44 53 -87 102 -101 75 -20 152 31 167 111 2 10 -2 19 -8 20
-7 0 -22 2 -34 3 -14 2 -23 -3 -23 -11 0 -8 -11 -25 -25 -39 -29 -29 -70 -26
-97 7 -15 18 -18 43 -18 176 0 90 4 163 11 174 25 48 100 43 122 -9 9 -22 18
-28 40 -27 40 3 42 9 17 60 -29 60 -90 91 -150 75z"/>
<path d="M1104 1282 c-6 -4 -40 -82 -75 -174 -54 -143 -64 -163 -67 -133 -3
33 -6 35 -38 35 l-34 0 0 -140 0 -140 34 3 34 2 57 145 c89 232 84 228 84 60
0 -236 -4 -212 34 -207 l32 3 0 272 c1 150 -2 272 -5 273 -3 0 -14 2 -25 4
-11 2 -25 1 -31 -3z"/>
<path d="M546 1198 c2 -71 4 -79 100 -268 95 -186 100 -195 129 -196 17 -1 33
0 37 3 8 4 -253 533 -263 533 -3 0 -4 -33 -3 -72z"/>
<path d="M204 657 c-2 -7 -3 -131 -2 -277 l3 -265 75 -1 c98 -2 151 19 178 73
17 33 20 61 21 196 3 240 -22 277 -187 283 -59 3 -84 0 -88 -9z m187 -85 c13
-17 16 -47 16 -182 0 -192 -4 -202 -83 -204 l-49 -1 -3 199 c-2 139 1 202 9
206 22 14 93 2 110 -18z"/>
<path d="M890 528 l0 -138 34 0 c33 0 35 2 38 35 3 30 13 11 68 -134 35 -94
69 -172 75 -175 5 -2 21 -3 35 -2 l25 1 0 274 0 275 -32 3 -33 4 -1 -58 c0
-32 0 -112 0 -178 0 -118 0 -119 -16 -85 -23 50 -35 81 -83 206 l-42 111 -34
0 -34 0 0 -139z"/>
<path d="M1308 646 c-70 -47 -73 -58 -73 -256 0 -196 2 -205 68 -254 63 -47
171 -8 197 70 13 38 12 41 -10 44 -32 5 -50 -1 -50 -14 0 -24 -48 -55 -78 -50
-53 9 -57 25 -56 200 1 87 2 165 3 172 0 7 17 20 37 28 32 14 38 13 60 -1 14
-9 29 -26 33 -38 7 -17 16 -22 37 -21 25 1 29 5 27 29 -6 84 -124 140 -195 91z"/>
<path d="M1579 646 c-1 -24 -1 -492 0 -517 1 -14 19 -16 139 -15 l137 1 1 33
c0 17 -2 33 -5 33 -3 1 -49 2 -101 3 l-95 1 -5 45 c-3 25 -3 63 0 86 l5 41 97
-2 c88 -1 97 0 102 18 11 44 -6 52 -108 51 -73 0 -96 3 -97 13 0 7 0 40 0 73
0 33 0 66 0 73 1 10 25 13 96 12 53 0 100 2 105 5 5 3 7 14 5 25 -2 11 -4 25
-4 31 -1 7 -46 11 -136 11 -131 0 -135 0 -136 -21z"/>
<path d="M546 578 c1 -72 3 -77 100 -268 87 -171 103 -195 124 -196 14 -1 30
1 37 3 8 3 -34 96 -120 269 -73 145 -134 264 -137 264 -3 0 -5 -33 -4 -72z"/>
</g>
</svg>
